<mxfile host="65bd71144e">
    <diagram id="CxNjNJ2FF9cVoCC3dGvy" name="Page-1">
        <mxGraphModel dx="1852" dy="563" grid="1" gridSize="10" guides="1" tooltips="1" connect="1" arrows="1" fold="1" page="1" pageScale="1" pageWidth="850" pageHeight="1100" math="0" shadow="0">
            <root>
                <mxCell id="0"/>
                <mxCell id="1" parent="0"/>
                <mxCell id="3" value="&lt;span style=&quot;color: rgb(255, 255, 255);&quot;&gt;App to learn the function of Streamlit&lt;/span&gt;" style="rounded=1;whiteSpace=wrap;html=1;fillColor=#60a917;fontColor=#ffffff;strokeColor=#2D7600;" vertex="1" parent="1">
                    <mxGeometry x="180" y="40" width="340" height="40" as="geometry"/>
                </mxCell>
                <mxCell id="11" value="" style="edgeStyle=none;html=1;fontSize=14;entryX=0;entryY=0.5;entryDx=0;entryDy=0;" edge="1" parent="1" source="4" target="12">
                    <mxGeometry relative="1" as="geometry">
                        <mxPoint x="270.592485549133" y="147.03757225433526" as="targetPoint"/>
                    </mxGeometry>
                </mxCell>
                <mxCell id="4" value="Create a environment&amp;nbsp;" style="rounded=1;whiteSpace=wrap;html=1;fillColor=#6d8764;fontColor=#ffffff;strokeColor=#3A5431;" vertex="1" parent="1">
                    <mxGeometry x="50" y="130" width="160" height="30" as="geometry"/>
                </mxCell>
                <mxCell id="5" value="Run the App&amp;nbsp;&lt;br&gt;python -m streamlit run app.py" style="rounded=1;whiteSpace=wrap;html=1;fillColor=#6d8764;fontColor=#ffffff;strokeColor=#3A5431;" vertex="1" parent="1">
                    <mxGeometry x="710" y="120" width="200" height="50" as="geometry"/>
                </mxCell>
                <mxCell id="14" value="" style="edgeStyle=none;html=1;fontSize=14;" edge="1" parent="1" source="12" target="5">
                    <mxGeometry relative="1" as="geometry"/>
                </mxCell>
                <mxCell id="12" value="&lt;b style=&quot;color: rgb(255, 255, 255); font-size: 12px;&quot;&gt;&lt;font style=&quot;font-size: 14px;&quot;&gt;Installation&amp;nbsp;&lt;/font&gt;&lt;/b&gt;&lt;br style=&quot;color: rgb(255, 255, 255); font-size: 12px;&quot;&gt;&lt;br style=&quot;color: rgb(255, 255, 255); font-size: 12px;&quot;&gt;&lt;span style=&quot;color: rgb(255, 255, 255); font-size: 12px;&quot;&gt;pip install streamlit&lt;/span&gt;&lt;br style=&quot;color: rgb(255, 255, 255); font-size: 12px;&quot;&gt;&lt;span style=&quot;color: rgb(255, 255, 255); font-size: 12px;&quot;&gt;pip install pandas numpy seaborn matplotlib plotly scipy scikit-learn openpyxl&lt;/span&gt;" style="shape=hexagon;perimeter=hexagonPerimeter2;whiteSpace=wrap;html=1;fixedSize=1;fontSize=14;fillColor=#76608a;fontColor=#ffffff;strokeColor=#432D57;" vertex="1" parent="1">
                    <mxGeometry x="265" y="105" width="380" height="80" as="geometry"/>
                </mxCell>
                <mxCell id="15" value="Streamlit Cheatsheet:&amp;nbsp;&lt;a href=&quot;https://cheat-sheet.streamlit.app/&quot;&gt;https://cheat-sheet.streamlit.app/&lt;/a&gt;" style="shape=step;perimeter=stepPerimeter;whiteSpace=wrap;html=1;fixedSize=1;fontSize=14;" vertex="1" parent="1">
                    <mxGeometry x="-30" y="510" width="430" height="40" as="geometry"/>
                </mxCell>
            </root>
        </mxGraphModel>
    </diagram>
</mxfile>